<?xml version="1.0" encoding="UTF-8" standalone="no"?>
<svg
   xmlns:dc="http://purl.org/dc/elements/1.1/"
   xmlns:cc="http://creativecommons.org/ns#"
   xmlns:rdf="http://www.w3.org/1999/02/22-rdf-syntax-ns#"
   xmlns:svg="http://www.w3.org/2000/svg"
   xmlns="http://www.w3.org/2000/svg"
   viewBox="0 0 675.11249 318.89999"
   height="318.89999"
   width="675.11249"
   xml:space="preserve"
   version="1.1"
   id="svg2"><metadata
     id="metadata8"><rdf:RDF><cc:Work
         rdf:about=""><dc:format>image/svg+xml</dc:format><dc:type
           rdf:resource="http://purl.org/dc/dcmitype/StillImage" /></cc:Work></rdf:RDF></metadata><defs
     id="defs6"><clipPath
       id="clipPath18"
       clipPathUnits="userSpaceOnUse"><path
         id="path20"
         d="m 0,0 5400.91,0 0,2551 L 0,2551 0,0 Z" /></clipPath></defs><g
     transform="matrix(1.25,0,0,-1.25,0,318.9)"
     id="g10"><g
       transform="scale(0.1,0.1)"
       id="g12"><g
         id="g14"><g
           clip-path="url(#clipPath18)"
           id="g16"><path
             id="path22"
             style="fill:#18222d;fill-opacity:1;fill-rule:nonzero;stroke:none"
             d="m 606.063,780.07 c -24.973,4.399 -30.852,6.61 -40.403,24.981 l -189.531,383.459 -103.586,0 L 80.8086,816.059 C 68.3203,791.078 60.9727,788.141 32.3242,781.531 L 0,774.191 0,703.66 l 217.449,0 0,70.531 -33.793,5.879 c -14.691,2.2 -19.101,10.282 -11.754,25.711 l 13.957,26.438 230.672,0 14.696,-31.59 C 438.57,787.41 429.02,780.07 413.594,778.59 l -33.059,-4.399 0,-70.531 256.383,0 0,70.531 -30.855,5.879 z m -383.469,128.551 83.746,165.289 75.668,-165.289 -159.414,0 z m 542.883,7.348 c 0,36 -27.18,63.179 -62.442,63.179 -35.992,0 -63.176,-27.179 -63.176,-63.179 0,-35.258 27.184,-62.449 63.176,-62.449 35.262,0 62.442,27.191 62.442,62.449 m 619.283,120.481 c 0,91.1 -69.06,152.06 -166.03,152.06 l -386.41,0 0,-69.78 41.875,-2.94 c 19.098,-1.47 29.383,-13.96 29.383,-33.06 l 0,-265.199 c 0,-25.722 -7.348,-36.73 -27.914,-38.941 l -43.344,-4.399 0,-70.531 272.54,0 0,71.262 -49.95,4.406 c -24.24,2.203 -29.38,12.481 -29.38,38.203 l 0,63.18 193.2,0 c 96.97,0 166.03,62.437 166.03,155.739 m -124.89,0 c 0,-49.231 -34.53,-74.93 -87.42,-74.93 l -146.92,0 0,149.86 146.92,0 c 52.89,0 87.42,-25.71 87.42,-74.93 m 307.8,-120.481 c 0,36 -27.18,63.179 -62.45,63.179 -35.99,0 -63.17,-27.179 -63.17,-63.179 0,-35.258 27.18,-62.449 63.17,-62.449 35.27,0 62.45,27.191 62.45,62.449 M 2394.11,780.07 c -22.77,2.942 -35.26,7.34 -40.4,30.11 l -60.98,269.61 c -3.67,16.9 -4.4,31.59 21.31,34.53 l 42.61,4.41 -4.41,69.78 -179.25,0 -138.84,-253.44 -149.14,253.44 -185.12,0 -3.67,-69.78 44.07,-5.15 c 22.04,-2.2 25.72,-15.42 22.04,-33.79 l -56.56,-272.552 c -4.41,-19.828 -15.43,-22.769 -44.08,-27.168 l -35.26,-5.879 0,-70.531 239.49,0 0,69.801 -44.82,6.609 c -13.95,2.2 -24.97,7.34 -20.57,30.11 l 39.67,200.56 136.65,-220.388 70.52,0 129.29,232.138 49.22,-215.978 c 3.68,-14.703 -2.2,-24.242 -14.69,-26.442 l -38.93,-6.609 0,-69.801 258.58,0 0,71.262 -36.73,5.148 z m 642.06,166.02 c 0,151.33 -120.48,255.65 -299.73,255.65 -179.99,0 -300.46,-104.32 -300.46,-255.65 0,-152.07 120.47,-255.649 300.46,-255.649 179.25,0 299.73,103.579 299.73,255.649 m -470.9,2.941 c 0,100.649 71.99,168.219 171.17,168.219 36,0 69.05,-9.55 96.23,-27.17 L 2583.63,866.012 c -11.75,24.25 -18.36,52.16 -18.36,83.019 m 341.6,-2.941 c 0,-100.641 -69.79,-170.43 -170.43,-170.43 -36.73,0 -69.06,9.539 -95.51,26.449 l 249.05,222.591 c 11.01,-23.51 16.89,-49.962 16.89,-78.61 m 636.18,-52.16 c -30.12,-90.36 -62.44,-113.129 -133.7,-113.129 l -100.64,0 0,301.929 c 0,19.1 11.02,30.85 32.32,32.33 l 54.37,3.67 0,69.78 -280.63,0 0,-69.78 40.4,-2.94 c 19.83,-1.47 30.86,-13.96 30.86,-33.06 l 0,-265.199 c 0,-25.722 -8.82,-36.73 -29.38,-38.941 l -41.88,-4.399 0,-70.531 468.69,0 43.34,201.289 -80.08,0 -3.67,-11.019 z m 548.04,0 c -30.13,-90.36 -62.45,-113.129 -133.71,-113.129 l -100.64,0 0,301.929 c 0,19.1 11.02,30.85 32.32,32.33 l 54.35,3.67 0,69.78 -280.62,0 0,-69.78 40.41,-2.94 c 19.84,-1.47 30.86,-13.96 30.86,-33.06 l 0,-265.199 c 0,-25.722 -8.82,-36.73 -29.4,-38.941 l -41.87,-4.399 0,-70.531 468.69,0 43.35,201.289 -80.08,0 -3.66,-11.019 z m 584.01,11.019 -1.47,-2.937 c -35.26,-88.891 -66.12,-121.211 -136.64,-121.211 l -133.7,0 0,133.699 63.91,0 c 27.18,0 36,-7.34 44.82,-33.059 l 11.74,-33.05 74.2,0 -47.75,204.229 -71.99,0 3.67,-32.33 c 2.21,-19.83 -5.14,-27.188 -24.24,-27.188 l -54.36,0 0,119.018 147.66,0 c 48.49,0 81.55,-19.84 92.56,-76.41 l 83.75,0 -38.2,152.8 -478.24,0 0,-69.78 40.41,-2.94 c 19.83,-1.47 30.11,-13.96 30.11,-33.06 l 0,-265.199 c 0,-25.722 -8.08,-36.73 -28.65,-38.941 l -41.87,-4.399 0,-70.531 501.01,0 42.61,201.289 -79.34,0 z m 700.83,-127.82 c -32.32,3.672 -44.08,6.609 -64.65,27.922 l -88.88,89.621 c 78.6,12.488 134.43,68.316 134.43,145.458 0,88.88 -64.65,148.38 -161.62,148.38 l -397.43,0 0,-69.78 41.87,-2.94 c 16.91,-1.47 29.39,-16.16 29.39,-33.06 l 0,-265.199 c 0,-25.722 -7.35,-36.73 -27.91,-38.941 l -43.35,-4.399 0,-70.531 262.26,0 0,70.531 -39.66,4.399 c -24.25,2.211 -29.39,13.219 -29.39,38.941 l 0,72.731 95.5,0 89.63,-99.184 c 8.81,-9.547 2.94,-15.418 -8.09,-16.156 l -25.71,-1.461 0,-69.801 258.59,0 0,70.531 -24.98,2.938 z m -384.94,334.251 155,0 c 53.63,0 88.16,-24.24 88.16,-71.25 0,-47.028 -34.53,-72.001 -88.16,-72.001 l -155,0 0,143.251" /><path
             id="path24"
             style="fill:#18222d;fill-opacity:1;fill-rule:nonzero;stroke:none"
             d="m 1704.12,266.359 -23.92,117.879 -42.26,0 8.35,-45.047 c -29.48,27.821 -71.18,46.161 -129.57,46.161 -125.67,0 -206.3,-81.743 -206.3,-192.403 C 1310.42,81.7383 1391.05,0 1517.83,0 c 115.11,0 189.63,61.7188 201.3,147.352 l -38.93,0 C 1668.54,80.0781 1605.14,37.25 1521.18,37.25 c -96.76,0 -157.93,65.059 -157.93,155.699 0,93.422 61.73,157.371 155.7,157.371 67.85,0 117.33,-33.929 140.68,-83.961 l 44.49,0 z M 2100.61,58.3789 c 5,-10.5703 -1.12,-15 -15.58,-16.6797 l -25.03,-3.3281 0,-28.92188 149.59,0 0,28.92188 -23.35,4.4375 c -18.91,3.3398 -23.35,8.3516 -30.59,22.25 l -152.92,311.3904 -52.83,0 L 1808.66,86.1914 C 1794.2,56.1602 1791.98,50.5898 1764.17,43.9219 l -22.24,-5.5508 0,-28.92188 133.46,0 0,28.92188 -25.58,4.4375 c -11.12,1.6719 -16.12,7.7812 -10.56,19.4727 l 27.24,56.7067 204.64,0 29.48,-60.6091 z m -131.24,274.1521 85.63,-179.07 -171.83,0 86.2,179.07 z m 658.93,-67.293 c 0,68.953 -49.49,111.211 -122.89,111.211 l -249.68,0 0,-28.91 31.14,-2.789 c 14.46,-1.102 18.36,-11.672 18.36,-25.02 l 0,-248.5581 c 0,-22.2422 -5.56,-27.793 -21.13,-29.4727 l -28.37,-3.3281 0,-28.92188 160.71,0 0,29.47268 -37.81,3.3281 c -18.36,1.6719 -22.24,6.6797 -22.24,28.9219 l 0,86.1871 146.24,0 c 73.4,0 125.67,37.262 125.67,107.879 m -52.82,0 c 0,-49.5 -34.48,-73.41 -91.2,-73.41 l -127.89,0 0,151.262 127.89,0 c 58.95,0 91.2,-29.481 91.2,-77.852 m 209.07,51.153 c 0,21.699 3.9,26.148 22.81,28.359 l 27.23,2.789 0,28.91 -150.68,0 0,-28.91 27.24,-2.789 c 18.36,-2.211 22.24,-6.66 22.24,-28.359 l 0,-227.4222 c 0,-40.0391 1.12,-44.4883 -22.24,-47.2696 l -27.24,-3.3281 0,-28.92188 150.68,0 0,28.92188 -27.23,3.3281 c -20.02,2.2227 -22.81,6.1094 -22.81,29.4727 l 0,245.2191 z m 458.2,60.058 -325.85,0 -28.37,-98.98 38.37,0 c 17.24,55.062 36.71,65.621 73.41,65.621 l 53.93,0 0,-248.0002 c 0,-45.0507 2.22,-50.6093 -22.24,-53.3906 l -28.92,-3.3281 0,-28.92188 153.48,0 0,28.92188 -28.92,3.3281 c -20.02,2.2227 -22.24,6.1094 -22.24,29.4727 l 0,271.9181 53.38,0 c 36.7,0 56.72,-10.559 73.4,-65.621 l 38.37,0 -27.8,98.98 z M 3601.97,58.3789 c 5,-10.5703 -1.12,-15 -15.58,-16.6797 l -25.02,-3.3281 0,-28.92188 149.58,0 0,28.92188 -23.35,4.4375 c -18.9,3.3398 -23.36,8.3516 -30.58,22.25 l -152.92,311.3904 -52.83,0 -141.24,-290.2576 c -14.46,-30.0312 -16.69,-35.6016 -44.49,-42.2695 l -22.23,-5.5508 0,-28.92188 133.45,0 0,28.92188 -25.58,4.4375 c -11.12,1.6719 -16.13,7.7812 -10.57,19.4727 l 27.26,56.7067 204.63,0 29.47,-60.6091 z m -131.24,274.1521 85.63,-179.07 -171.81,0 86.18,179.07 z m 387.03,-289.7224 0,255.7934 c 0,31.699 -1.11,44.488 23.91,46.707 l 28.91,2.23 0,28.91 -153.48,0 0,-28.91 26.14,-2.23 c 17.8,-1.11 23.36,-7.778 23.36,-25.028 l 0,-227.4216 c 0,-42.8203 1.11,-48.3789 -22.25,-51.1602 l -27.25,-3.3281 0,-28.92188 314.74,0 32.81,131.23078 -32.81,0 -6.11,-14.461 c -31.7,-76.7385 -42.82,-83.4104 -98.99,-83.4104 l -108.98,0" /><path
             id="path26"
             style="fill:#6db5d8;fill-opacity:1;fill-rule:nonzero;stroke:none"
             d="m 1483.6,2551.18 0,-972.82 2619.9,486.42 -2619.9,486.4" /><path
             id="path28"
             style="fill:#ffffff;fill-opacity:1;fill-rule:nonzero;stroke:none"
             d="m 2075.12,2072.58 111.33,138.84 -0.35,0.45 -160.89,-77.06 -39.73,173.15 -0.57,0 -39.73,-173.15 -160.87,77.06 -0.35,-0.45 111.34,-138.84 -160.9,-77.05 0.13,-0.54 178.56,0 -39.73,-173.16 0.5,-0.22 111.35,138.84 111.32,-138.84 0.51,0.23 -39.74,173.15 178.57,0 0.12,0.54 -160.87,77.05" /></g></g></g></g></svg>